<?xml version="1.0" encoding="UTF-8"?>
<svg id="Layer_1" data-name="Layer 1" xmlns="http://www.w3.org/2000/svg" viewBox="0 0 1080 1080">
  <defs>
    <style>
      .cls-1 {
        fill: #f5f5f5;
      }
    </style>
  </defs>
  <polygon class="cls-1" points="197.53 591.53 221.69 591.53 178.79 634.43 109.02 704.2 54.8 704.2 173.97 585.01 197.53 561.45 197.53 591.53"/>
  <path class="cls-1" d="M690.18,430.4h-52.64l-16.94-16.94-110.42-110.41-161.08,161.08c-.95-6.69-2.7-12.79-5.23-18.23-3.22-6.89-7.48-12.93-12.74-18.03l178.26-178.26,116.64,116.64v-84.24h37.21v121.45l9.99,10,16.95,16.94Z"/>
  <g>
    <g>
      <path class="cls-1" d="M338.61,474.62c-.19-9.26-1.85-17.25-4.97-23.95-2.68-5.72-6.17-10.65-10.49-14.82-1.08-1.05-2.23-2.04-3.41-2.99-5.94-4.71-12.9-8.17-20.86-10.37-7.97-2.19-16.59-3.29-25.87-3.29h-64.17v161.03h39.54v-45.64h16.58c5.03,0,9.8-.23,14.35-.65,9.69-.94,18.25-2.87,25.68-5.81,10.89-4.3,19.23-10.78,25.01-19.39,5.77-8.62,8.65-19.36,8.65-32.2,0-.64-.01-1.29-.02-1.92Zm-48.04,22.29c-4.88,3.99-12.28,5.98-22.2,5.98h-20v-51.96h22.44c9.1,0,15.89,2.16,20.37,6.46,1.77,1.71,3.19,3.77,4.26,6.18,1.64,3.67,2.45,8.16,2.45,13.46,0,9.27-2.44,15.9-7.32,19.88Z"/>
      <path class="cls-1" d="M465.88,477.87c-5.29-10-12.69-17.47-22.21-22.44-9.51-4.96-20.61-7.44-33.3-7.44s-23.15,2.41-32.81,7.21c-9.68,4.8-17.33,12.2-22.93,22.2-5.61,10.01-8.43,22.9-8.43,38.68s2.69,27.69,8.05,37.69c5.37,10.01,12.84,17.49,22.44,22.44s20.58,7.44,32.94,7.44,23.15-2.36,32.81-7.07c9.68-4.72,17.33-12.09,22.94-22.08,5.61-10.01,8.42-22.9,8.42-38.68s-2.64-27.93-7.93-37.94Zm-34.77,59.9c-1.8,5.53-4.39,9.73-7.81,12.57-3.42,2.85-7.65,4.27-12.69,4.27-7.65,0-13.63-3.42-17.94-10.26-4.32-6.82-6.46-16.42-6.46-28.78,0-7.82,.89-14.48,2.68-20.02,1.8-5.52,4.39-9.71,7.81-12.56,3.42-2.85,7.57-4.27,12.45-4.27,5.21,0,9.64,1.55,13.29,4.63,3.66,3.1,6.47,7.53,8.42,13.31,1.95,5.77,2.94,12.89,2.94,21.35,0,7.65-.9,14.23-2.69,19.76Zm-78.62-77.04l7.25-7.25c-2.6,2.19-5.03,4.62-7.25,7.25Z"/>
      <path class="cls-1" d="M465.88,477.87c-5.29-10-12.69-17.47-22.21-22.44-9.51-4.96-20.61-7.44-33.3-7.44s-23.15,2.41-32.81,7.21c-9.68,4.8-17.33,12.2-22.93,22.2-5.61,10.01-8.43,22.9-8.43,38.68s2.69,27.69,8.05,37.69c5.37,10.01,12.84,17.49,22.44,22.44s20.58,7.44,32.94,7.44,23.15-2.36,32.81-7.07c9.68-4.72,17.33-12.09,22.94-22.08,5.61-10.01,8.42-22.9,8.42-38.68s-2.64-27.93-7.93-37.94Zm-34.77,59.9c-1.8,5.53-4.39,9.73-7.81,12.57-3.42,2.85-7.65,4.27-12.69,4.27-7.65,0-13.63-3.42-17.94-10.26-4.32-6.82-6.46-16.42-6.46-28.78,0-7.82,.89-14.48,2.68-20.02,1.8-5.52,4.39-9.71,7.81-12.56,3.42-2.85,7.57-4.27,12.45-4.27,5.21,0,9.64,1.55,13.29,4.63,3.66,3.1,6.47,7.53,8.42,13.31,1.95,5.77,2.94,12.89,2.94,21.35,0,7.65-.9,14.23-2.69,19.76Z"/>
      <path class="cls-1" d="M598.12,461.9c7.07,9.26,10.61,23.1,10.61,41.48v76.86h-39.52v-71.74c0-8.78-1.34-15.37-4.02-19.76-2.69-4.39-6.96-6.6-12.81-6.6-4.88,0-9.19,1.72-12.93,5.13-3.74,3.41-6.68,8.95-8.79,16.59-2.11,7.65-3.16,17.89-3.16,30.74v45.64h-39.52v-128.83h33.42v52.46h1.94c.98-12.69,3.1-23.13,6.35-31.36,3.25-8.21,7.88-14.35,13.91-18.42,6.02-4.06,13.67-6.1,22.94-6.1,13.98,0,24.51,4.64,31.59,13.92Z"/>
      <path class="cls-1" d="M598.12,461.9c-7.08-9.27-17.61-13.92-31.59-13.92-9.27,0-16.92,2.04-22.94,6.1-6.02,4.08-10.65,10.21-13.91,18.42-3.25,8.22-5.37,18.67-6.35,31.36h-1.94v-52.46h-33.42v128.83h39.52v-45.64c0-12.84,1.05-23.09,3.16-30.74,2.11-7.65,5.05-13.18,8.79-16.59,3.74-3.41,8.05-5.13,12.93-5.13,5.85,0,10.12,2.2,12.81,6.6,2.68,4.38,4.02,10.98,4.02,19.76v71.74h39.52v-76.86c0-18.38-3.54-32.22-10.61-41.48Z"/>
      <path class="cls-1" d="M709.73,409.44v37.82c0,4.38,.2,9.1,.61,14.14,.41,5.05,1.02,10.26,1.83,15.62,.81,5.37,1.63,10.82,2.44,16.35h-2.19c-1.47-10.73-4.07-19.43-7.81-26.1-3.75-6.66-8.51-11.54-14.28-14.64-5.77-3.09-12.4-4.64-19.88-4.64-9.6,0-17.97,2.44-25.13,7.32-7.16,4.88-12.69,12.24-16.59,22.08-3.9,9.85-5.85,22.16-5.85,36.97,0,15.61,2.16,28.54,6.46,38.79,4.32,10.25,10.17,17.89,17.57,22.93,7.4,5.05,15.75,7.57,25.01,7.57,7.49,0,13.95-1.63,19.41-4.88,5.44-3.25,10-8.09,13.66-14.52,3.66-6.43,6.38-14.36,8.18-23.79h1.71v39.77h34.41v-170.79h-39.54Zm.5,107.59c0,6.02-.7,11.23-2.08,15.62-1.38,4.38-3.22,8.04-5.49,10.98-2.28,2.93-4.88,5.08-7.81,6.46-2.93,1.39-5.94,2.08-9.03,2.08-4.88,0-9.04-1.59-12.45-4.77-3.41-3.16-6.02-7.43-7.81-12.81-1.8-5.37-2.69-11.22-2.69-17.57s.81-12.23,2.44-17.69c1.63-5.44,4.15-9.88,7.57-13.3,3.41-3.41,7.65-5.13,12.69-5.13,2.27,0,4.6,.42,6.96,1.22,2.35,.82,4.59,2.08,6.71,3.78,2.11,1.71,3.98,3.91,5.6,6.59,1.63,2.69,2.94,5.94,3.91,9.76,.97,3.83,1.47,8.18,1.47,13.06v1.71Z"/>
      <path class="cls-1" d="M709.73,409.44v37.82c0,4.38,.2,9.1,.61,14.14,.41,5.05,1.02,10.26,1.83,15.62,.81,5.37,1.63,10.82,2.44,16.35h-2.19c-1.47-10.73-4.07-19.43-7.81-26.1-3.75-6.66-8.51-11.54-14.28-14.64-5.77-3.09-12.4-4.64-19.88-4.64-9.6,0-17.97,2.44-25.13,7.32-7.16,4.88-12.69,12.24-16.59,22.08-3.9,9.85-5.85,22.16-5.85,36.97,0,15.61,2.16,28.54,6.46,38.79,4.32,10.25,10.17,17.89,17.57,22.93,7.4,5.05,15.75,7.57,25.01,7.57,7.49,0,13.95-1.63,19.41-4.88,5.44-3.25,10-8.09,13.66-14.52,3.66-6.43,6.38-14.36,8.18-23.79h1.71v39.77h34.41v-170.79h-39.54Zm.5,107.59c0,6.02-.7,11.23-2.08,15.62-1.38,4.38-3.22,8.04-5.49,10.98-2.28,2.93-4.88,5.08-7.81,6.46-2.93,1.39-5.94,2.08-9.03,2.08-4.88,0-9.04-1.59-12.45-4.77-3.41-3.16-6.02-7.43-7.81-12.81-1.8-5.37-2.69-11.22-2.69-17.57s.81-12.23,2.44-17.69c1.63-5.44,4.15-9.88,7.57-13.3,3.41-3.41,7.65-5.13,12.69-5.13,2.27,0,4.6,.42,6.96,1.22,2.35,.82,4.59,2.08,6.71,3.78,2.11,1.71,3.98,3.91,5.6,6.59,1.63,2.69,2.94,5.94,3.91,9.76,.97,3.83,1.47,8.18,1.47,13.06v1.71Z"/>
      <path class="cls-1" d="M883.09,477.87c-5.29-10-12.69-17.47-22.21-22.44-9.51-4.96-20.61-7.44-33.3-7.44s-23.15,2.41-32.81,7.21c-9.68,4.8-17.33,12.2-22.94,22.2-5.61,10.01-8.42,22.9-8.42,38.68s2.69,27.69,8.05,37.69c5.37,10.01,12.84,17.49,22.44,22.44,9.59,4.96,20.58,7.44,32.94,7.44s23.13-2.36,32.81-7.07c9.68-4.72,17.33-12.09,22.94-22.08,5.6-10.01,8.42-22.9,8.42-38.68s-2.64-27.93-7.93-37.94Zm-34.77,59.9c-1.8,5.53-4.39,9.73-7.81,12.57-3.42,2.85-7.65,4.27-12.7,4.27-7.65,0-13.62-3.42-17.93-10.26-4.31-6.82-6.47-16.42-6.47-28.78,0-7.82,.89-14.48,2.69-20.02,1.78-5.52,4.39-9.71,7.81-12.56,3.42-2.85,7.57-4.27,12.45-4.27,5.2,0,9.64,1.55,13.3,4.63,3.66,3.1,6.46,7.53,8.42,13.31,1.95,5.77,2.93,12.89,2.93,21.35,0,7.65-.89,14.23-2.68,19.76Z"/>
      <path class="cls-1" d="M883.09,477.87c-5.29-10-12.69-17.47-22.21-22.44-9.51-4.96-20.61-7.44-33.3-7.44s-23.15,2.41-32.81,7.21c-9.68,4.8-17.33,12.2-22.94,22.2-5.61,10.01-8.42,22.9-8.42,38.68s2.69,27.69,8.05,37.69c5.37,10.01,12.84,17.49,22.44,22.44,9.59,4.96,20.58,7.44,32.94,7.44s23.13-2.36,32.81-7.07c9.68-4.72,17.33-12.09,22.94-22.08,5.6-10.01,8.42-22.9,8.42-38.68s-2.64-27.93-7.93-37.94Zm-34.77,59.9c-1.8,5.53-4.39,9.73-7.81,12.57-3.42,2.85-7.65,4.27-12.7,4.27-7.65,0-13.62-3.42-17.93-10.26-4.31-6.82-6.47-16.42-6.47-28.78,0-7.82,.89-14.48,2.69-20.02,1.78-5.52,4.39-9.71,7.81-12.56,3.42-2.85,7.57-4.27,12.45-4.27,5.2,0,9.64,1.55,13.3,4.63,3.66,3.1,6.46,7.53,8.42,13.31,1.95,5.77,2.93,12.89,2.93,21.35,0,7.65-.89,14.23-2.68,19.76Z"/>
      <path class="cls-1" d="M1025.2,580.24h-42.7l-2.68-21.47c-.66-5.21-1.55-10.09-2.69-14.64-1.14-4.55-3.33-8.26-6.59-11.1-3.25-2.85-8.38-4.27-15.37-4.27h-11.47v51.49h-38.55v-170.79h38.55v90.51c5.52-2.93,10.29-6.26,14.28-10,3.98-3.74,7.35-7.77,10.12-12.09,2.77-4.3,5-8.7,6.71-13.17,1.71-4.47,3.13-8.9,4.27-13.3h45.39c-1.8,6.51-4.36,12.81-7.69,18.91-3.33,6.1-7.44,11.79-12.32,17.08-4.88,5.29-10.53,10.04-16.95,14.27-6.43,4.24-13.54,7.74-21.35,10.49v1.95c10.09-1.63,18.34-1.83,24.77-.61,6.42,1.22,11.5,3.5,15.25,6.83,3.74,3.33,6.62,7.52,8.65,12.56,2.03,5.05,3.63,10.65,4.77,16.84l5.6,30.5Z"/>
      <path class="cls-1" d="M1019.6,549.74c-1.14-6.19-2.73-11.79-4.77-16.84-2.03-5.04-4.91-9.23-8.65-12.56-3.75-3.33-8.83-5.61-15.25-6.83-6.43-1.22-14.68-1.02-24.77,.61v-1.95c7.81-2.76,14.92-6.26,21.35-10.49,6.43-4.22,12.08-8.98,16.95-14.27,4.88-5.29,8.99-10.98,12.32-17.08,3.33-6.1,5.9-12.4,7.69-18.91h-45.39c-1.14,4.39-2.56,8.82-4.27,13.3-1.71,4.47-3.94,8.87-6.71,13.17-2.77,4.32-6.14,8.35-10.12,12.09-3.99,3.74-8.75,7.07-14.28,10v-90.51h-38.55v170.79h38.55v-51.49h11.47c6.99,0,12.12,1.42,15.37,4.27,3.25,2.85,5.44,6.55,6.59,11.1,1.14,4.55,2.03,9.43,2.69,14.64l2.68,21.47h42.7l-5.6-30.5Z"/>
    </g>
    <g>
      <path class="cls-1" d="M348.15,794.28h-43.92l-9.27-35.86c-1.47-5.85-3.54-10.62-6.22-14.28-2.68-3.66-6.13-6.3-10.37-7.93-4.22-1.62-9.59-2.44-16.1-2.44h-13.91v60.51h-39.54v-161.03h39.54v68.8c7.81-2.6,14.67-6.3,20.61-11.09,5.93-4.8,11.01-10.29,15.25-16.47,4.22-6.19,7.72-12.81,10.48-19.89,2.77-7.07,4.89-14.19,6.35-21.35h44.4c-1.95,9.27-4.76,18.02-8.42,26.23-3.66,8.22-8.26,15.74-13.78,22.57-5.54,6.83-11.96,12.9-19.28,18.18-7.32,5.29-15.61,9.65-24.88,13.06v1.95c9.92-.81,18.14-.2,24.65,1.83,6.5,2.03,11.79,5,15.86,8.9,4.06,3.91,7.27,8.34,9.64,13.3,2.35,4.97,4.35,9.97,5.98,15.01l12.93,40.01Z"/>
      <path class="cls-1" d="M335.22,754.27c-1.63-5.04-3.63-10.04-5.98-15.01-2.36-4.96-5.58-9.39-9.64-13.3-4.07-3.9-9.36-6.87-15.86-8.9-6.51-2.03-14.73-2.64-24.65-1.83v-1.95c9.27-3.41,17.57-7.77,24.88-13.06,7.32-5.28,13.75-11.34,19.28-18.18,5.52-6.83,10.12-14.35,13.78-22.57,3.66-8.21,6.46-16.96,8.42-26.23h-44.4c-1.46,7.16-3.58,14.28-6.35,21.35-2.77,7.08-6.26,13.7-10.48,19.89-4.24,6.18-9.32,11.67-15.25,16.47-5.94,4.79-12.81,8.49-20.61,11.09v-68.8h-39.54v161.03h39.54v-60.51h13.91c6.51,0,11.87,.82,16.1,2.44,4.24,1.63,7.69,4.27,10.37,7.93,2.69,3.66,4.76,8.43,6.22,14.28l9.27,35.86h43.92l-12.93-40.01Z"/>
      <path class="cls-1" d="M467.33,691.93c-5.29-10.01-12.69-17.49-22.2-22.44-9.52-4.96-20.63-7.44-33.31-7.44s-23.13,2.41-32.81,7.2c-9.68,4.8-17.33,12.2-22.93,22.21-5.61,10-8.43,22.9-8.43,38.67s2.69,27.7,8.05,37.71c5.37,10,12.85,17.49,22.44,22.44,9.6,4.96,20.58,7.44,32.94,7.44s23.15-2.36,32.83-7.08c9.67-4.71,17.32-12.08,22.93-22.08,5.61-10,8.42-22.89,8.42-38.67s-2.64-27.93-7.93-37.94Zm-34.77,59.9c-1.78,5.52-4.39,9.71-7.81,12.56-3.41,2.85-7.65,4.27-12.69,4.27-7.65,0-13.62-3.41-17.94-10.25-4.32-6.83-6.46-16.42-6.46-28.79,0-7.81,.89-14.47,2.68-20,1.8-5.52,4.39-9.71,7.82-12.56,3.41-2.85,7.56-4.27,12.44-4.27,5.21,0,9.64,1.55,13.3,4.63,3.66,3.1,6.47,7.52,8.43,13.3,1.94,5.77,2.93,12.9,2.93,21.35,0,7.65-.9,14.23-2.69,19.77Z"/>
      <path class="cls-1" d="M467.33,691.93c-5.29-10.01-12.69-17.49-22.2-22.44-9.52-4.96-20.63-7.44-33.31-7.44s-23.13,2.41-32.81,7.2c-9.68,4.8-17.33,12.2-22.93,22.21-5.61,10-8.43,22.9-8.43,38.67s2.69,27.7,8.05,37.71c5.37,10,12.85,17.49,22.44,22.44,9.6,4.96,20.58,7.44,32.94,7.44s23.15-2.36,32.83-7.08c9.67-4.71,17.32-12.08,22.93-22.08,5.61-10,8.42-22.89,8.42-38.67s-2.64-27.93-7.93-37.94Zm-34.77,59.9c-1.78,5.52-4.39,9.71-7.81,12.56-3.41,2.85-7.65,4.27-12.69,4.27-7.65,0-13.62-3.41-17.94-10.25-4.32-6.83-6.46-16.42-6.46-28.79,0-7.81,.89-14.47,2.68-20,1.8-5.52,4.39-9.71,7.82-12.56,3.41-2.85,7.56-4.27,12.44-4.27,5.21,0,9.64,1.55,13.3,4.63,3.66,3.1,6.47,7.52,8.43,13.3,1.94,5.77,2.93,12.9,2.93,21.35,0,7.65-.9,14.23-2.69,19.77Z"/>
      <path class="cls-1" d="M609.82,692.41c-3.66-10-9.03-17.57-16.1-22.69-7.08-5.12-15.67-7.68-25.74-7.68-7.97,0-14.76,1.58-20.38,4.76s-10.21,7.97-13.78,14.4c-3.58,6.43-6.27,14.44-8.05,24.03h-1.71v-39.77h-34.64v164.94h39.52v-31.72c0-4.55-.2-9.31-.61-14.28-.41-4.96-.94-10-1.59-15.12-.64-5.13-1.38-10.04-2.19-14.76h2.19c1.47,9.76,4.03,17.86,7.69,24.28,3.66,6.44,8.29,11.19,13.91,14.28,5.61,3.08,12.08,4.64,19.39,4.64,9.1,0,17.24-2.41,24.4-7.21,7.16-4.79,12.81-12.23,16.96-22.32,4.16-10.09,6.22-23.02,6.22-38.79,0-14.64-1.83-26.96-5.49-36.97Zm-36.84,55.15c-1.55,5.29-3.99,9.56-7.32,12.81-3.34,3.25-7.61,4.88-12.81,4.88-2.28,0-4.56-.37-6.83-1.11-2.28-.72-4.47-1.91-6.59-3.54-2.12-1.62-3.99-3.74-5.61-6.34-1.63-2.6-2.93-5.69-3.91-9.27-.97-3.58-1.46-7.81-1.46-12.69v-1.47c0-6.18,.69-11.47,2.07-15.86,1.38-4.39,3.21-8.01,5.49-10.86,2.28-2.85,4.88-4.96,7.81-6.35,2.94-1.38,5.94-2.07,9.04-2.07,4.88,0,8.98,1.58,12.31,4.76s5.86,7.4,7.57,12.69c1.71,5.29,2.56,11.18,2.56,17.69,0,5.86-.78,11.43-2.32,16.72Z"/>
      <path class="cls-1" d="M609.82,692.41c-3.66-10-9.03-17.57-16.1-22.69-7.08-5.12-15.67-7.68-25.74-7.68-7.97,0-14.76,1.58-20.38,4.76s-10.21,7.97-13.78,14.4c-3.58,6.43-6.27,14.44-8.05,24.03h-1.71v-39.77h-34.64v164.94h39.52v-31.72c0-4.55-.2-9.31-.61-14.28-.41-4.96-.94-10-1.59-15.12-.64-5.13-1.38-10.04-2.19-14.76h2.19c1.47,9.76,4.03,17.86,7.69,24.28,3.66,6.44,8.29,11.19,13.91,14.28,5.61,3.08,12.08,4.64,19.39,4.64,9.1,0,17.24-2.41,24.4-7.21,7.16-4.79,12.81-12.23,16.96-22.32,4.16-10.09,6.22-23.02,6.22-38.79,0-14.64-1.83-26.96-5.49-36.97Zm-36.84,55.15c-1.55,5.29-3.99,9.56-7.32,12.81-3.34,3.25-7.61,4.88-12.81,4.88-2.28,0-4.56-.37-6.83-1.11-2.28-.72-4.47-1.91-6.59-3.54-2.12-1.62-3.99-3.74-5.61-6.34-1.63-2.6-2.93-5.69-3.91-9.27-.97-3.58-1.46-7.81-1.46-12.69v-1.47c0-6.18,.69-11.47,2.07-15.86,1.38-4.39,3.21-8.01,5.49-10.86,2.28-2.85,4.88-4.96,7.81-6.35,2.94-1.38,5.94-2.07,9.04-2.07,4.88,0,8.98,1.58,12.31,4.76s5.86,7.4,7.57,12.69c1.71,5.29,2.56,11.18,2.56,17.69,0,5.86-.78,11.43-2.32,16.72Z"/>
      <rect class="cls-1" x="629.95" y="665.45" width="39.52" height="128.83"/>
      <path class="cls-1" d="M626.29,637.64c0-6.18,1.99-10.86,5.98-14.03,3.99-3.17,9.71-4.76,17.2-4.76s13.45,1.63,17.44,4.88c3.99,3.25,5.98,7.88,5.98,13.91s-1.99,10.41-5.98,13.67c-3.99,3.25-9.79,4.88-17.44,4.88s-13.22-1.59-17.2-4.77c-3.99-3.16-5.98-7.76-5.98-13.78Z"/>
      <path class="cls-1" d="M629.95,665.45v128.83h39.52v-128.83h-39.52Zm36.96-41.72c-3.99-3.25-9.79-4.88-17.44-4.88s-13.22,1.58-17.2,4.76c-3.99,3.17-5.98,7.85-5.98,14.03s1.99,10.62,5.98,13.78c3.99,3.17,9.71,4.77,17.2,4.77s13.45-1.63,17.44-4.88c3.99-3.25,5.98-7.82,5.98-13.67s-1.99-10.65-5.98-13.91Z"/>
    </g>
  </g>
</svg>